<svg xmlns="http://www.w3.org/2000/svg" xmlns:xlink="http://www.w3.org/1999/xlink" width="500" zoomAndPan="magnify" viewBox="0 0 375 119.999999" height="160" preserveAspectRatio="xMidYMid meet" version="1.0"><defs><g/></defs><g fill="#ffffff" fill-opacity="1"><g transform="translate(42.333267, 97.780647)"><g><path d="M 39.828125 -72.421875 C 46.910156 -72.421875 53.109375 -70.984375 58.421875 -68.109375 C 63.742188 -65.234375 67.875 -61.101562 70.8125 -55.71875 C 73.757812 -50.332031 75.234375 -43.796875 75.234375 -36.109375 C 75.234375 -28.617188 73.726562 -22.066406 70.71875 -16.453125 C 67.707031 -10.835938 63.507812 -6.457031 58.125 -3.3125 C 52.75 -0.164062 46.613281 1.40625 39.71875 1.40625 C 32.632812 1.40625 26.429688 -0.03125 21.109375 -2.90625 C 15.796875 -5.78125 11.664062 -9.925781 8.71875 -15.34375 C 5.78125 -20.757812 4.3125 -27.28125 4.3125 -34.90625 C 4.3125 -42.394531 5.832031 -48.945312 8.875 -54.5625 C 11.914062 -60.1875 16.09375 -64.566406 21.40625 -67.703125 C 26.726562 -70.847656 32.867188 -72.421875 39.828125 -72.421875 Z M 39.421875 -70.625 C 35.679688 -70.625 32.421875 -69.117188 29.640625 -66.109375 C 26.867188 -63.097656 24.726562 -58.953125 23.21875 -53.671875 C 21.71875 -48.390625 20.96875 -42.269531 20.96875 -35.3125 C 20.96875 -28.21875 21.816406 -22.046875 23.515625 -16.796875 C 25.222656 -11.546875 27.53125 -7.5 30.4375 -4.65625 C 33.351562 -1.820312 36.582031 -0.40625 40.125 -0.40625 C 43.875 -0.40625 47.132812 -1.90625 49.90625 -4.90625 C 52.675781 -7.914062 54.8125 -12.078125 56.3125 -17.390625 C 57.820312 -22.710938 58.578125 -28.820312 58.578125 -35.71875 C 58.578125 -42.863281 57.722656 -49.046875 56.015625 -54.265625 C 54.316406 -59.484375 52.007812 -63.515625 49.09375 -66.359375 C 46.1875 -69.203125 42.960938 -70.625 39.421875 -70.625 Z M 39.421875 -70.625 "/></g></g></g><g fill="#ffffff" fill-opacity="1"><g transform="translate(121.86284, 97.780647)"><g><path d="M 38.828125 -53.265625 C 41.628906 -53.265625 43.898438 -52.910156 45.640625 -52.203125 C 47.378906 -51.503906 48.785156 -50.554688 49.859375 -49.359375 C 50.921875 -48.085938 51.6875 -46.429688 52.15625 -44.390625 C 52.625 -42.347656 52.859375 -39.65625 52.859375 -36.3125 L 52.859375 -9.328125 C 52.859375 -6.515625 53.289062 -4.609375 54.15625 -3.609375 C 55.03125 -2.609375 56.539062 -2.109375 58.6875 -2.109375 L 58.6875 0 C 57.476562 -0.0625 55.648438 -0.144531 53.203125 -0.25 C 50.765625 -0.351562 48.378906 -0.40625 46.046875 -0.40625 C 43.640625 -0.40625 41.265625 -0.351562 38.921875 -0.25 C 36.578125 -0.144531 34.804688 -0.0625 33.609375 0 L 33.609375 -2.109375 C 35.410156 -2.109375 36.660156 -2.609375 37.359375 -3.609375 C 38.066406 -4.609375 38.421875 -6.515625 38.421875 -9.328125 L 38.421875 -40.53125 C 38.421875 -42.195312 38.285156 -43.648438 38.015625 -44.890625 C 37.742188 -46.128906 37.222656 -47.097656 36.453125 -47.796875 C 35.691406 -48.503906 34.539062 -48.859375 33 -48.859375 C 31.257812 -48.859375 29.65625 -48.351562 28.1875 -47.34375 C 26.71875 -46.34375 25.53125 -44.957031 24.625 -43.1875 C 23.71875 -41.414062 23.265625 -39.425781 23.265625 -37.21875 L 23.265625 -9.328125 C 23.265625 -6.515625 23.632812 -4.609375 24.375 -3.609375 C 25.113281 -2.609375 26.351562 -2.109375 28.09375 -2.109375 L 28.09375 0 C 27.019531 -0.0625 25.363281 -0.144531 23.125 -0.25 C 20.882812 -0.351562 18.59375 -0.40625 16.25 -0.40625 C 13.707031 -0.40625 11.097656 -0.351562 8.421875 -0.25 C 5.742188 -0.144531 3.738281 -0.0625 2.40625 0 L 2.40625 -2.109375 C 4.75 -2.109375 6.40625 -2.609375 7.375 -3.609375 C 8.34375 -4.609375 8.828125 -6.515625 8.828125 -9.328125 L 8.828125 -40.921875 C 8.828125 -43.929688 8.375 -46.15625 7.46875 -47.59375 C 6.570312 -49.03125 4.882812 -49.75 2.40625 -49.75 L 2.40625 -51.859375 C 4.550781 -51.660156 6.625 -51.5625 8.625 -51.5625 C 11.4375 -51.5625 14.0625 -51.675781 16.5 -51.90625 C 18.9375 -52.144531 21.191406 -52.5 23.265625 -52.96875 L 23.265625 -43.9375 C 24.878906 -47.28125 27.054688 -49.671875 29.796875 -51.109375 C 32.535156 -52.546875 35.546875 -53.265625 38.828125 -53.265625 Z M 69.015625 -53.265625 C 71.828125 -53.265625 74.097656 -52.910156 75.828125 -52.203125 C 77.566406 -51.503906 78.972656 -50.554688 80.046875 -49.359375 C 81.117188 -48.085938 81.890625 -46.429688 82.359375 -44.390625 C 82.828125 -42.347656 83.0625 -39.65625 83.0625 -36.3125 L 83.0625 -9.328125 C 83.0625 -6.515625 83.546875 -4.609375 84.515625 -3.609375 C 85.484375 -2.609375 87.140625 -2.109375 89.484375 -2.109375 L 89.484375 0 C 88.210938 -0.0625 86.304688 -0.144531 83.765625 -0.25 C 81.222656 -0.351562 78.710938 -0.40625 76.234375 -0.40625 C 73.828125 -0.40625 71.453125 -0.351562 69.109375 -0.25 C 66.773438 -0.144531 65.003906 -0.0625 63.796875 0 L 63.796875 -2.109375 C 65.597656 -2.109375 66.847656 -2.609375 67.546875 -3.609375 C 68.253906 -4.609375 68.609375 -6.515625 68.609375 -9.328125 L 68.609375 -40.53125 C 68.609375 -42.195312 68.457031 -43.648438 68.15625 -44.890625 C 67.851562 -46.128906 67.285156 -47.097656 66.453125 -47.796875 C 65.617188 -48.503906 64.332031 -48.859375 62.59375 -48.859375 C 60.851562 -48.859375 59.25 -48.320312 57.78125 -47.25 C 56.3125 -46.175781 55.125 -44.734375 54.21875 -42.921875 C 53.3125 -41.117188 52.828125 -39.117188 52.765625 -36.921875 L 52.265625 -43.03125 C 54.066406 -47.039062 56.457031 -49.75 59.4375 -51.15625 C 62.414062 -52.5625 65.609375 -53.265625 69.015625 -53.265625 Z M 69.015625 -53.265625 "/></g></g></g><g fill="#ffffff" fill-opacity="1"><g transform="translate(212.624881, 97.780647)"><g><path d="M 28.28125 -53.265625 C 34.164062 -53.265625 38.78125 -51.523438 42.125 -48.046875 C 45.46875 -44.566406 47.140625 -38.882812 47.140625 -31 L 14.140625 -31 L 13.9375 -32.90625 L 34.5 -32.90625 C 34.570312 -36.175781 34.375 -39.195312 33.90625 -41.96875 C 33.4375 -44.75 32.695312 -46.972656 31.6875 -48.640625 C 30.6875 -50.316406 29.351562 -51.15625 27.6875 -51.15625 C 25.34375 -51.15625 23.351562 -49.679688 21.71875 -46.734375 C 20.082031 -43.796875 19.097656 -38.914062 18.765625 -32.09375 L 19.0625 -31.5 C 18.988281 -30.695312 18.9375 -29.859375 18.90625 -28.984375 C 18.875 -28.117188 18.859375 -27.21875 18.859375 -26.28125 C 18.859375 -21.664062 19.507812 -17.921875 20.8125 -15.046875 C 22.113281 -12.171875 23.769531 -10.082031 25.78125 -8.78125 C 27.789062 -7.476562 29.832031 -6.828125 31.90625 -6.828125 C 33.300781 -6.828125 34.75 -7.039062 36.25 -7.46875 C 37.757812 -7.90625 39.285156 -8.707031 40.828125 -9.875 C 42.367188 -11.050781 43.804688 -12.707031 45.140625 -14.84375 L 46.953125 -14.25 C 46.148438 -11.707031 44.878906 -9.226562 43.140625 -6.8125 C 41.398438 -4.40625 39.191406 -2.429688 36.515625 -0.890625 C 33.835938 0.640625 30.628906 1.40625 26.890625 1.40625 C 22.335938 1.40625 18.320312 0.4375 14.84375 -1.5 C 11.363281 -3.4375 8.640625 -6.378906 6.671875 -10.328125 C 4.703125 -14.273438 3.71875 -19.289062 3.71875 -25.375 C 3.71875 -31.59375 4.769531 -36.773438 6.875 -40.921875 C 8.976562 -45.066406 11.882812 -48.160156 15.59375 -50.203125 C 19.3125 -52.242188 23.539062 -53.265625 28.28125 -53.265625 Z M 28.28125 -53.265625 "/></g></g></g><g fill="#ffffff" fill-opacity="1"><g transform="translate(262.569005, 97.780647)"><g><path d="M 36.921875 -53.265625 C 39.054688 -53.265625 40.789062 -52.8125 42.125 -51.90625 C 43.46875 -51.007812 44.457031 -49.859375 45.09375 -48.453125 C 45.726562 -47.046875 46.046875 -45.570312 46.046875 -44.03125 C 46.046875 -41.5625 45.328125 -39.539062 43.890625 -37.96875 C 42.453125 -36.394531 40.5625 -35.609375 38.21875 -35.609375 C 35.875 -35.609375 34.050781 -36.191406 32.75 -37.359375 C 31.445312 -38.535156 30.796875 -40.09375 30.796875 -42.03125 C 30.796875 -43.90625 31.210938 -45.457031 32.046875 -46.6875 C 32.878906 -47.925781 33.929688 -48.984375 35.203125 -49.859375 C 34.273438 -50.117188 33.34375 -50.082031 32.40625 -49.75 C 31.132812 -49.550781 29.925781 -49.035156 28.78125 -48.203125 C 27.644531 -47.367188 26.675781 -46.332031 25.875 -45.09375 C 25.070312 -43.851562 24.4375 -42.515625 23.96875 -41.078125 C 23.5 -39.640625 23.265625 -38.253906 23.265625 -36.921875 L 23.265625 -10.328125 C 23.265625 -7.117188 24.050781 -4.945312 25.625 -3.8125 C 27.195312 -2.675781 29.554688 -2.109375 32.703125 -2.109375 L 32.703125 0 C 31.160156 -0.0625 28.914062 -0.144531 25.96875 -0.25 C 23.03125 -0.351562 19.957031 -0.40625 16.75 -0.40625 C 14.070312 -0.40625 11.363281 -0.351562 8.625 -0.25 C 5.882812 -0.144531 3.8125 -0.0625 2.40625 0 L 2.40625 -2.109375 C 4.75 -2.109375 6.40625 -2.609375 7.375 -3.609375 C 8.34375 -4.609375 8.828125 -6.515625 8.828125 -9.328125 L 8.828125 -40.921875 C 8.828125 -43.929688 8.375 -46.15625 7.46875 -47.59375 C 6.570312 -49.03125 4.882812 -49.75 2.40625 -49.75 L 2.40625 -51.859375 C 4.550781 -51.660156 6.625 -51.5625 8.625 -51.5625 C 11.4375 -51.5625 14.0625 -51.675781 16.5 -51.90625 C 18.9375 -52.144531 21.191406 -52.5 23.265625 -52.96875 L 23.265625 -43.640625 C 24.066406 -45.441406 25.132812 -47.078125 26.46875 -48.546875 C 27.8125 -50.023438 29.351562 -51.179688 31.09375 -52.015625 C 32.832031 -52.847656 34.773438 -53.265625 36.921875 -53.265625 Z M 36.921875 -53.265625 "/></g></g></g><g fill="#ffffff" fill-opacity="1"><g transform="translate(305.492119, 97.780647)"><g><path d="M 13.546875 -14.046875 C 16.148438 -14.046875 18.21875 -13.359375 19.75 -11.984375 C 21.289062 -10.617188 22.0625 -8.726562 22.0625 -6.3125 C 22.0625 -3.90625 21.289062 -2.015625 19.75 -0.640625 C 18.21875 0.722656 16.148438 1.40625 13.546875 1.40625 C 10.929688 1.40625 8.851562 0.722656 7.3125 -0.640625 C 5.78125 -2.015625 5.015625 -3.90625 5.015625 -6.3125 C 5.015625 -8.726562 5.78125 -10.617188 7.3125 -11.984375 C 8.851562 -13.359375 10.929688 -14.046875 13.546875 -14.046875 Z M 13.546875 -14.046875 "/></g></g></g></svg>